<svg width="193" height="31" viewBox="0 0 193 31" fill="none" xmlns="http://www.w3.org/2000/svg">
<path d="M0.152344 18.384C0.152344 25.92 5.67234 30.576 12.8243 30.576C16.3763 30.576 20.2163 29.568 22.5203 27.504L19.4003 22.896C18.1043 24.048 15.8003 24.864 13.7363 24.864C10.2803 24.864 8.26434 22.896 7.83234 20.736H24.3443V19.152C24.3443 11.28 19.3523 6.23995 12.4883 6.23995C5.24034 6.23995 0.152344 11.664 0.152344 18.384ZM12.4883 11.952C15.8963 11.952 17.0963 14.304 17.2883 15.936H7.73634C8.02434 14.256 9.27234 11.952 12.4883 11.952Z" fill="#002D43"/>
<path d="M41.0652 30H48.4572V15.504C48.4572 8.30396 43.2252 6.23995 37.6572 6.23995C34.1052 6.23995 30.1212 7.29596 27.1452 9.83996L29.7852 14.496C31.6572 12.912 34.0572 12.048 36.3612 12.048C39.3372 12.048 41.0652 13.392 41.0652 15.408V18.336C39.6732 16.608 36.9372 15.648 33.8652 15.648C30.3132 15.648 25.8972 17.328 25.8972 22.944C25.8972 28.176 30.3132 30.576 33.8652 30.576C36.8412 30.576 39.6252 29.424 41.0652 27.696V30ZM41.0652 24.048C40.2972 25.152 38.5692 25.728 36.9372 25.728C34.9692 25.728 33.2412 24.864 33.2412 23.04C33.2412 21.216 34.9692 20.352 36.9372 20.352C38.5692 20.352 40.2972 20.928 41.0652 21.984V24.048Z" fill="#002D43"/>
<path d="M62.0067 30.576C64.7427 30.576 66.5667 29.904 67.4787 29.04L66.0387 23.472C65.7987 23.76 64.9827 24.048 64.1667 24.048C62.8707 24.048 62.1027 23.04 62.1027 21.696V13.248H66.8067V6.81596H62.1027V0.479956H54.7587V6.81596H50.9187V13.248H54.7587V23.76C54.7587 28.224 57.3027 30.576 62.0067 30.576Z" fill="#002D43"/>
<path d="M83.5996 30H90.9916V15.504C90.9916 8.30396 85.7596 6.23995 80.1916 6.23995C76.6396 6.23995 72.6556 7.29596 69.6796 9.83996L72.3196 14.496C74.1916 12.912 76.5916 12.048 78.8956 12.048C81.8716 12.048 83.5996 13.392 83.5996 15.408V18.336C82.2076 16.608 79.4716 15.648 76.3996 15.648C72.8476 15.648 68.4316 17.328 68.4316 22.944C68.4316 28.176 72.8476 30.576 76.3996 30.576C79.3756 30.576 82.1596 29.424 83.5996 27.696V30ZM83.5996 24.048C82.8316 25.152 81.1036 25.728 79.4716 25.728C77.5036 25.728 75.7756 24.864 75.7756 23.04C75.7756 21.216 77.5036 20.352 79.4716 20.352C81.1036 20.352 82.8316 20.928 83.5996 21.984V24.048Z" fill="#002D43"/>
<path d="M111.453 30H118.845V13.584C118.845 9.31195 116.445 6.23995 111.165 6.23995C107.277 6.23995 104.541 8.01595 103.149 9.64795V6.81596H95.7571V30H103.149V15.024C104.013 13.968 105.453 12.768 107.661 12.768C109.965 12.768 111.453 13.776 111.453 16.608V30Z" fill="#002D43"/>
<path d="M122.074 18.384C122.074 25.68 127.498 30.576 134.746 30.576C139.738 30.576 142.858 28.32 144.25 26.304L139.45 21.792C138.538 23.088 137.05 24.048 135.082 24.048C132.01 24.048 129.658 21.888 129.658 18.384C129.658 14.88 132.01 12.768 135.082 12.768C137.05 12.768 138.538 13.632 139.45 14.976L144.25 10.512C142.858 8.44795 139.738 6.23995 134.746 6.23995C127.498 6.23995 122.074 11.136 122.074 18.384Z" fill="#002D43"/>
<path d="M145.474 18.384C145.474 25.92 150.994 30.576 158.146 30.576C161.698 30.576 165.538 29.568 167.842 27.504L164.722 22.896C163.426 24.048 161.122 24.864 159.058 24.864C155.602 24.864 153.586 22.896 153.154 20.736H169.666V19.152C169.666 11.28 164.674 6.23995 157.81 6.23995C150.562 6.23995 145.474 11.664 145.474 18.384ZM157.81 11.952C161.218 11.952 162.418 14.304 162.61 15.936H153.058C153.346 14.256 154.594 11.952 157.81 11.952Z" fill="#002D43"/>
<path d="M171.939 26.064C171.939 28.512 174.003 30.576 176.451 30.576C178.899 30.576 180.963 28.512 180.963 26.064C180.963 23.616 178.899 21.552 176.451 21.552C174.003 21.552 171.939 23.616 171.939 26.064Z" fill="#00900E"/>
<path d="M182.3 6.99996H183.47V1.35996H185.49V0.329956H180.28V1.35996H182.3V6.99996Z" fill="#002D43"/>
<path d="M191.642 6.99996H192.812V0.329956H191.162L189.342 4.81996L187.532 0.329956H185.882V6.99996H187.052V1.94996L189.092 6.99996H189.592L191.642 1.94996V6.99996Z" fill="#002D43"/>
</svg>
